<?xml version="1.0" encoding="UTF-8" standalone="no"?>
<svg
   version="1.1"
   width="100"
   height="100"
   viewBox="0 0 100 100"
   xml:space="preserve"
   id="svg248"
   sodipodi:docname="geo-portal-icon.svg"
   inkscape:version="1.1.1 (3bf5ae0d25, 2021-09-20)"
   xmlns:inkscape="http://www.inkscape.org/namespaces/inkscape"
   xmlns:sodipodi="http://sodipodi.sourceforge.net/DTD/sodipodi-0.dtd"
   xmlns="http://www.w3.org/2000/svg"
   xmlns:svg="http://www.w3.org/2000/svg"><sodipodi:namedview
   id="namedview250"
   pagecolor="#505050"
   bordercolor="#ffffff"
   borderopacity="1"
   inkscape:pageshadow="0"
   inkscape:pageopacity="0"
   inkscape:pagecheckerboard="1"
   showgrid="false"
   units="px"
   height="101px"
   inkscape:zoom="6.1171875"
   inkscape:cx="66.942528"
   inkscape:cy="61.057471"
   inkscape:window-width="1920"
   inkscape:window-height="1001"
   inkscape:window-x="506"
   inkscape:window-y="1341"
   inkscape:window-maximized="1"
   inkscape:current-layer="svg248"
   width="100px" />
<desc
   id="desc171">Created with Fabric.js 3.1.0</desc>
<defs
   id="defs173" />


<g
   transform="matrix(0.35785073,0,0,0.35793085,50.017276,49.924157)"
   id="g227"
   style="display:inline">
	<g
   transform="matrix(0.264,0,0,-0.264,67.464,-67.260758)"
   id="logo-logo">
<path
   style="opacity:1;fill:#fbd22d;fill-rule:nonzero;stroke:none;stroke-width:1;stroke-linecap:butt;stroke-linejoin:miter;stroke-miterlimit:4;stroke-dasharray:none;stroke-dashoffset:0"
   paint-order="stroke"
   transform="translate(-750.6465,-749.875)"
   d="M 534.891,533.344 H 966.402 V 806.98 c 0,87.684 -71.742,159.426 -159.425,159.426 H 534.891 V 533.344"
   stroke-linecap="round"
   id="path180" />
</g>
	<g
   transform="matrix(0.264,0,0,-0.264,67.464,-67.260758)"
   id="g185">
<path
   style="opacity:1;fill:#28377a;fill-rule:nonzero;stroke:none;stroke-width:1;stroke-linecap:butt;stroke-linejoin:miter;stroke-miterlimit:4;stroke-dasharray:none;stroke-dashoffset:0"
   paint-order="stroke"
   transform="translate(-750.6465,-749.875)"
   d="M 558.461,556.918 H 942.832 V 806.98 c 0,74.911 -60.941,135.852 -135.859,135.852 H 558.461 Z M 989.977,509.773 H 511.316 v 480.204 h 295.657 c 100.906,0 183.004,-82.094 183.004,-182.997 V 509.773"
   stroke-linecap="round"
   id="path183" />
</g>
	<g
   transform="matrix(0.264,0,0,-0.264,-67.464,-67.260758)"
   id="g189">
<path
   style="opacity:1;fill:#7ecaf1;fill-rule:nonzero;stroke:none;stroke-width:1;stroke-linecap:butt;stroke-linejoin:miter;stroke-miterlimit:4;stroke-dasharray:none;stroke-dashoffset:0"
   paint-order="stroke"
   transform="translate(-239.3321,-749.875)"
   d="M 455.09,533.344 V 966.406 H 183 C 95.3164,966.406 23.5742,894.664 23.5742,806.98 V 533.344 H 455.09"
   stroke-linecap="round"
   id="path187" />
</g>
	<g
   transform="matrix(0.264,0,0,-0.264,-67.464,-67.260758)"
   id="g193">
<path
   style="opacity:1;fill:#28377a;fill-rule:nonzero;stroke:none;stroke-width:1;stroke-linecap:butt;stroke-linejoin:miter;stroke-miterlimit:4;stroke-dasharray:none;stroke-dashoffset:0"
   paint-order="stroke"
   transform="translate(-239.332,-749.875)"
   d="M 47.1445,556.918 H 431.52 V 942.832 H 183.004 c -74.91,0 -135.8595,-60.941 -135.8595,-135.852 z M 478.664,509.773 H 0 V 806.98 c 0,100.903 82.0938,182.997 183.004,182.997 h 295.66 V 509.773"
   stroke-linecap="round"
   id="path191" />
</g>
	<g
   transform="matrix(0.264,0,0,-0.264,0,67.668242)"
   id="g197">
<path
   style="opacity:1;fill:#ef363c;fill-rule:nonzero;stroke:none;stroke-width:1;stroke-linecap:butt;stroke-linejoin:miter;stroke-miterlimit:4;stroke-dasharray:none;stroke-dashoffset:0"
   paint-order="stroke"
   transform="translate(-494.9881,-238.56055)"
   d="M 23.5742,453.543 V 183.004 C 23.5742,95.3203 95.3164,23.5781 183,23.5781 h 623.977 c 87.683,0 159.425,71.7422 159.425,159.4259 V 453.543 H 23.5742"
   stroke-linecap="round"
   id="path195" />
</g>
	<g
   transform="matrix(0.264,0,0,-0.264,0,67.668242)"
   id="g201">
<path
   style="opacity:1;fill:#28377a;fill-rule:nonzero;stroke:none;stroke-width:1;stroke-linecap:butt;stroke-linejoin:miter;stroke-miterlimit:4;stroke-dasharray:none;stroke-dashoffset:0"
   paint-order="stroke"
   transform="translate(-494.9885,-238.5585)"
   d="M 47.1445,429.973 V 183.004 c 0,-74.918 60.9495,-135.8595 135.8595,-135.8595 h 623.969 c 74.918,0 135.859,60.9415 135.859,135.8595 V 429.973 Z M 806.973,0 H 183.004 C 82.0938,0 0,82.0977 0,183.004 V 477.117 H 989.977 V 183.004 C 989.977,82.0977 907.879,0 806.973,0"
   stroke-linecap="round"
   id="path199" />
</g>
	<g
   transform="matrix(0.264,0,0,-0.264,0,0.408242)"
   id="g205">
<path
   style="opacity:1;fill:#ffffff;fill-rule:nonzero;stroke:none;stroke-width:1;stroke-linecap:butt;stroke-linejoin:miter;stroke-miterlimit:4;stroke-dasharray:none;stroke-dashoffset:0"
   paint-order="stroke"
   transform="translate(-494.988,-493.443)"
   d="m 817.988,493.445 c 0,-178.39 -144.609,-323 -323,-323 -178.386,0 -323,144.61 -323,323 0,178.387 144.614,322.996 323,322.996 178.391,0 323,-144.609 323,-322.996"
   stroke-linecap="round"
   id="path203" />
</g>
	<g
   transform="matrix(0.264,0,0,-0.264,0.001,0.408242)"
   id="g209">
<path
   style="opacity:1;fill:#28377a;fill-rule:nonzero;stroke:none;stroke-width:1;stroke-linecap:butt;stroke-linejoin:miter;stroke-miterlimit:4;stroke-dasharray:none;stroke-dashoffset:0"
   paint-order="stroke"
   transform="translate(-494.9905,-493.4435)"
   d="m 494.984,792.867 c -165.097,0 -299.421,-134.32 -299.421,-299.426 0,-165.101 134.324,-299.425 299.421,-299.425 165.106,0 299.434,134.324 299.434,299.425 0,165.106 -134.328,299.426 -299.434,299.426 z m 0,-645.992 c -191.097,0 -346.562,155.469 -346.562,346.566 0,191.102 155.465,346.571 346.562,346.571 191.106,0 346.575,-155.469 346.575,-346.571 0,-191.097 -155.469,-346.566 -346.575,-346.566"
   stroke-linecap="round"
   id="path207" />
</g>
	<g
   transform="matrix(0.264,0,0,-0.264,0,0.407242)"
   id="g213">
<path
   style="opacity:1;fill:#ffffff;fill-rule:nonzero;stroke:none;stroke-width:1;stroke-linecap:butt;stroke-linejoin:miter;stroke-miterlimit:4;stroke-dasharray:none;stroke-dashoffset:0"
   paint-order="stroke"
   transform="translate(-494.988,-493.445)"
   d="m 616.113,493.445 c 0,-66.894 -54.226,-121.125 -121.125,-121.125 -66.894,0 -121.125,54.231 -121.125,121.125 0,66.895 54.231,121.125 121.125,121.125 66.899,0 121.125,-54.23 121.125,-121.125"
   stroke-linecap="round"
   id="path211" />
</g>
	<g
   transform="matrix(0.264,0,0,-0.264,0,0.408242)"
   id="g217">
<path
   style="opacity:1;fill:#28377a;fill-rule:nonzero;stroke:none;stroke-width:1;stroke-linecap:butt;stroke-linejoin:miter;stroke-miterlimit:4;stroke-dasharray:none;stroke-dashoffset:0"
   paint-order="stroke"
   transform="translate(-494.9885,-493.4435)"
   d="m 494.984,590.996 c -53.785,0 -97.554,-43.762 -97.554,-97.555 0,-53.789 43.769,-97.554 97.554,-97.554 53.797,0 97.555,43.765 97.555,97.554 0,53.793 -43.758,97.555 -97.555,97.555 z m 0,-242.25 c -79.785,0 -144.691,64.914 -144.691,144.695 0,79.786 64.906,144.7 144.691,144.7 79.786,0 144.7,-64.914 144.7,-144.7 0,-79.781 -64.914,-144.695 -144.7,-144.695"
   stroke-linecap="round"
   id="path215" />
</g>
	<g
   transform="matrix(0.264,0,0,-0.264,0,90.813242)"
   id="g221">
<path
   style="opacity:1;fill:#ffffff;fill-rule:nonzero;stroke:none;stroke-width:1;stroke-linecap:butt;stroke-linejoin:miter;stroke-miterlimit:4;stroke-dasharray:none;stroke-dashoffset:0"
   paint-order="stroke"
   transform="translate(-494.9885,-150.85165)"
   d="M 723.383,265.051 494.988,36.6523 266.594,265.051"
   stroke-linecap="round"
   id="path219" />
</g>
	<g
   transform="matrix(0.264,0,0,-0.264,0,93.010242)"
   id="g225">
<path
   style="opacity:1;fill:#28377a;fill-rule:nonzero;stroke:none;stroke-width:1;stroke-linecap:butt;stroke-linejoin:miter;stroke-miterlimit:4;stroke-dasharray:none;stroke-dashoffset:0"
   paint-order="stroke"
   transform="translate(-494.9885,-142.52356)"
   d="M 494.984,3.32813 249.93,248.387 283.262,281.719 494.984,69.9883 706.715,281.719 740.047,248.387 494.984,3.32813"
   stroke-linecap="round"
   id="path223" />
</g>
</g>

</svg>
